<svg xmlns="http://www.w3.org/2000/svg" xmlns:xlink="http://www.w3.org/1999/xlink" width="32" height="32" viewBox="0 0 32 32">
  <defs>
    <clipPath id="clip-ContourLines">
      <rect width="32" height="32"/>
    </clipPath>
  </defs>
  <g id="ContourLines" clip-path="url(#clip-ContourLines)">
    <path id="Path_3286" data-name="Path 3286" d="M1208.294,749.263h0a7.673,7.673,0,0,1-5.2-1.972,8.193,8.193,0,0,1-3.048-5.6,15.3,15.3,0,0,1,1.355-6.927,16.455,16.455,0,0,1,3.335-5.875c1.393-1.421,3.267-2.49,6.466-3.692,4.072-1.529,6.983-2.211,9.441-2.211a8.321,8.321,0,0,1,6.456,2.606c1.731,1.906,2.253,4.454,1.549,7.574a31.933,31.933,0,0,1-3.255,7.74,9.671,9.671,0,0,1-7.691,6.146c-.562.154-1.2.329-1.907.54l-1,.3A23.631,23.631,0,0,1,1208.294,749.263Zm12.349-23.278c-2.081,0-4.668.623-8.386,2.019-5.309,1.994-6.268,3.268-8.063,7.852a12.581,12.581,0,0,0-1.161,5.552,5.266,5.266,0,0,0,2.021,3.611,4.67,4.67,0,0,0,3.24,1.244h0a21.512,21.512,0,0,0,5.638-1.243l1.005-.3c.739-.22,1.394-.4,1.971-.559,3.213-.882,3.882-1.065,5.849-4.685,2.507-4.616,4.5-9.247,2.122-11.865A5.317,5.317,0,0,0,1220.643,725.985Z" transform="translate(-1198.481 -720.124)" fill="#fff"/>
    <path id="Path_3287" data-name="Path 3287" d="M1205.03,737.838h0a4.714,4.714,0,0,1-3.16-1.174c-2.63-2.226-1.962-5.03-1.087-7.224a8.957,8.957,0,0,1,1.895-3.24,9.42,9.42,0,0,1,3.617-2.046,15.175,15.175,0,0,1,5.146-1.169,5.048,5.048,0,0,1,3.876,1.558,4.737,4.737,0,0,1,.982,4.53,16.746,16.746,0,0,1-1.764,4.135c-1.427,2.577-2.391,2.929-4.436,3.479-.289.078-.615.166-.976.271l-.514.152A12.941,12.941,0,0,1,1205.03,737.838Zm6.41-11.853a13.5,13.5,0,0,0-4.109.984c-2.634.97-2.93,1.5-3.762,3.583-1,2.507-.509,3.189.239,3.822a1.739,1.739,0,0,0,1.222.464h0a11.022,11.022,0,0,0,2.726-.6l.524-.155c.391-.114.735-.207,1.038-.289a4.985,4.985,0,0,0,1.5-.532,4.65,4.65,0,0,0,1.1-1.5c1.11-2,2.121-4.185,1.205-5.174A2.065,2.065,0,0,0,1211.44,725.985Z" transform="translate(-1192.241 -715.412)" fill="#fff"/>
  </g>
</svg>
